<svg width="32" height="32" viewBox="0 0 32 32" fill="none" xmlns="http://www.w3.org/2000/svg">
<path d="M16 0.5C24.5604 0.5 31.5 7.43959 31.5 16C31.5 24.5604 24.5604 31.5 16 31.5C7.43959 31.5 0.5 24.5604 0.5 16C0.5 7.43959 7.43959 0.5 16 0.5Z" fill="white" fill-opacity="0.08"/>
<path d="M16 0.5C24.5604 0.5 31.5 7.43959 31.5 16C31.5 24.5604 24.5604 31.5 16 31.5C7.43959 31.5 0.5 24.5604 0.5 16C0.5 7.43959 7.43959 0.5 16 0.5Z" stroke="white"/>
<path d="M16.3887 13.1591L20.8391 17.5592C21.0536 17.7713 21.0536 18.1155 20.8391 18.3276L20.3199 18.8409C20.1056 19.0528 19.7584 19.053 19.5436 18.8418L16.0001 15.3545L12.4564 18.8415C12.2415 19.053 11.8944 19.0526 11.68 18.8406L11.1609 18.3274C10.9464 18.1152 10.9464 17.7711 11.1609 17.559L15.6115 13.1591C15.8261 12.947 16.1741 12.947 16.3887 13.1591Z" fill="white"/>
<path d="M16.3887 18.1591L20.8391 22.5592C21.0536 22.7713 21.0536 23.1155 20.8391 23.3276L20.3199 23.8409C20.1056 24.0528 19.7584 24.053 19.5436 23.8418L16.0001 20.3545L12.4564 23.8415C12.2415 24.053 11.8944 24.0526 11.68 23.8406L11.1609 23.3274C10.9464 23.1152 10.9464 22.7711 11.1609 22.559L15.6115 18.1591C15.8261 17.947 16.1741 17.947 16.3887 18.1591Z" fill="white"/>
<path d="M16.3887 8.1591L20.8391 12.5592C21.0536 12.7713 21.0536 13.1155 20.8391 13.3276L20.3199 13.8409C20.1056 14.0528 19.7584 14.053 19.5436 13.8418L16.0001 10.3545L12.4564 13.8415C12.2415 14.053 11.8944 14.0526 11.68 13.8406L11.1609 13.3274C10.9464 13.1152 10.9464 12.7711 11.1609 12.559L15.6115 8.1591C15.8261 7.94697 16.1741 7.94697 16.3887 8.1591Z" fill="white"/>
</svg>
